<svg width="800" height="500" viewBox="0 0 800 500" fill="none" xmlns="http://www.w3.org/2000/svg">
  <rect width="800" height="500" fill="#06090e"/>
  <rect x="0" y="0" width="800" height="56" fill="#0b1018"/>
  <rect x="24" y="18" width="110" height="20" rx="4" fill="rgba(255,255,255,0.15)"/>
  <!-- single product focus hero -->
  <rect x="80" y="90" width="280" height="300" rx="12" fill="rgba(255,255,255,0.04)" stroke="rgba(255,255,255,0.1)" stroke-width="1"/>
  <rect x="100" y="110" width="240" height="180" rx="8" fill="rgba(255,255,255,0.08)"/>
  <rect x="100" y="302" width="100" height="16" rx="4" fill="rgba(255,255,255,0.12)"/>
  <rect x="100" y="326" width="70" height="12" rx="4" fill="rgba(255,255,255,0.07)"/>
  <!-- right copy -->
  <rect x="420" y="110" width="280" height="40" rx="6" fill="rgba(255,255,255,0.12)"/>
  <rect x="420" y="164" width="240" height="16" rx="4" fill="rgba(255,255,255,0.07)"/>
  <rect x="420" y="188" width="220" height="16" rx="4" fill="rgba(255,255,255,0.05)"/>
  <rect x="420" y="212" width="200" height="16" rx="4" fill="rgba(255,255,255,0.05)"/>
  <rect x="420" y="260" width="140" height="44" rx="22" fill="rgba(60,100,200,0.6)"/>
  <rect x="420" y="316" width="260" height="1" fill="rgba(255,255,255,0.1)"/>
  <rect x="420" y="340" width="180" height="14" rx="4" fill="rgba(255,255,255,0.06)"/>
  <rect x="420" y="360" width="140" height="14" rx="4" fill="rgba(255,255,255,0.06)"/>
  <text x="400" y="480" text-anchor="middle" fill="rgba(255,255,255,0.2)" font-family="system-ui" font-size="13">High-Way 61/23 — Project placeholder</text>
</svg>
